<!-- <svg xmlns="http://www.w3.org/2000/svg" width="40" height="40" viewBox="0 0 40 40">
  <path transform="scale(0.0320625 0.0320625)" d="M598 214h212v212h-84v-128h-128v-84zM726 726v-128h84v212h-212v-84h128zM214 426v-212h212v84h-128v128h-84zM298 598v128h128v84h-212v-212h84z"></path>
</svg> -->
<svg t="1639666915246" class="icon" viewBox="0 0 1024 1024" 
version="1.1" xmlns="http://www.w3.org/2000/svg" p-id="1327" width="30" height="30"><path d="M85.333333 682.666667v128a128 128 0 0 0 128 128h128a42.666667 42.666667 0 0 0 0-85.333334H213.333333a42.666667 42.666667 0 0 1-42.666666-42.666666v-128a42.666667 42.666667 0 0 0-85.333334 0z m597.333334 256h128a128 128 0 0 0 128-128v-128a42.666667 42.666667 0 0 0-85.333334 0v128a42.666667 42.666667 0 0 1-42.666666 42.666666h-128a42.666667 42.666667 0 0 0 0 85.333334z m256-597.333334V213.333333a128 128 0 0 0-128-128h-128a42.666667 42.666667 0 0 0 0 85.333334h128a42.666667 42.666667 0 0 1 42.666666 42.666666v128a42.666667 42.666667 0 0 0 85.333334 0zM341.333333 85.333333H213.333333a128 128 0 0 0-128 128v128a42.666667 42.666667 0 0 0 85.333334 0V213.333333a42.666667 42.666667 0 0 1 42.666666-42.666666h128a42.666667 42.666667 0 0 0 0-85.333334z" p-id="1328" fill="#d4237a"></path></svg>