<!-- <svg xmlns="http://www.w3.org/2000/svg" width="70" height="70" viewBox="0 0 70 70">
  <path transform="translate(15,15) scale(0.04,0.04)" d="M576,363L810,512L576,661zM342,214L576,363L576,661L342,810z"></path>
</svg> -->
<svg t="1639582252240" class="icon" viewBox="0 0 1024 1024" version="1.1" xmlns="http://www.w3.org/2000/svg" p-id="13393" width="70" height="70"><path d="M512 0c282.763636 0 512 229.236364 512 512s-229.236364 512-512 512S0 794.763636 0 512 229.236364 0 512 0z m0 93.090909a418.909091 418.909091 0 1 0 0 837.818182 418.909091 418.909091 0 0 0 0-837.818182z" fill="#d81e06" p-id="13394"></path><path d="M372.363636 698.181818a46.545455 46.545455 0 0 0 72.378182 38.725818l279.272727-186.181818a46.545455 46.545455 0 0 0 0-77.451636L445.253818 287.464727a46.452364 46.452364 0 0 0-8.517818-4.654545L431.941818 281.134545a46.638545 46.638545 0 0 0-27.834182 0.558546l-5.771636 2.327273a46.731636 46.731636 0 0 0-16.197818 13.172363l-2.001455 2.792728c-1.815273 2.699636-3.258182 5.492364-4.421818 8.378181l-1.489454 4.282182a46.359273 46.359273 0 0 0-1.675637 8.657455L372.363636 326.423273c0.232727 14.848 7.447273 29.323636 20.712728 38.167272L465.454545 412.765091V325.818182c0-13.963636-6.144-26.437818-15.825454-34.955637l-4.887273-3.770181a46.731636 46.731636 0 0 0-8.378182-4.421819l-4.282181-1.489454a46.545455 46.545455 0 0 0-28.858182 0.837818l-4.282182 1.768727a46.266182 46.266182 0 0 0-22.667636 23.365819l-2.048 5.585454a46.266182 46.266182 0 0 0-1.722182 9.122909L372.363636 326.469818V698.181818z m93.090909-285.370182L614.260364 512 465.454545 611.188364V412.858182z" fill="#d81e06" p-id="13395"></path></svg>